<svg viewBox="0 0 128 128" xmlns="http://www.w3.org/2000/svg"><path fill="#FFA000" d="M27.35 80.52l10.68-68.44c.37-2.33 3.5-2.89 4.6-.8l11.48 21.48-26.76 47.76z"/><path fill="#F57C00" d="M99.84 97.23L90.5 33.74c-.3-1.86-2.61-2.63-3.93-1.29l-60.2 64.78 36.44 20.89a8.2 8.2 0 008.1 0l29.63-17.55-1.5-3.34h.8z"/><path fill="#FFCA28" d="M70.3 49.1l-9.89-18.93c-.67-1.28-2.49-1.28-3.16 0L27.35 80.52l36.04-38.33a2.37 2.37 0 016.91 6.91z"/><path fill="#fff" fill-opacity=".2" d="M70.7 117.12a8.2 8.2 0 01-8.1 0l-36.17-20.72-.08.12 36.44 20.89a8.2 8.2 0 008.1 0l29.63-17.55-.2-1.24-29.62 18.5z"/><path fill="#A52714" fill-opacity=".2" d="M99.84 97.23L90.5 33.74c-.3-1.86-2.61-2.63-3.93-1.29l-60.2 64.78-.02-.03 60.23-64.79c1.31-1.34 3.62-.57 3.93 1.29l9.33 63.53z"/></svg>