<svg viewBox="0 0 128 128" xmlns="http://www.w3.org/2000/svg"><path fill="#F03E2F" d="M32.59 43.36c0 14.3 8.88 22.91 26.64 27.74l19.13 4.57c12.21 2.72 18.37 8.14 18.37 17a18.5 18.5 0 01-.15 2.39 21.95 21.95 0 01-18.21 19.27 44.4 44.4 0 01-6.43.56c-16.3 0-30.1-7.67-35.52-24.43l-.08-.22-12.5 5.46.08.23c6.9 22.2 25.93 34.98 54.45 34.98a65.2 65.2 0 0011.98-1.12c22.49-4.26 37.37-19.81 37.37-42.35 0-14.71-9.35-23.93-27.45-28.84l-19.4-4.92c-10.76-2.5-16.8-7.45-16.8-15.69 0-.7.04-1.4.12-2.08 1.28-10.55 10.48-17.41 24.5-17.41 13.67 0 24.96 6.24 30.5 19.03l.15.32 11.94-5.71-.1-.23C125.54 13.36 108.54.81 84.19.81c-27.45 0-46.66 15.55-48.26 39.83a41.7 41.7 0 00-.11 3.25l-.23-.53z"/></svg>