<svg viewBox="0 0 128 128" xmlns="http://www.w3.org/2000/svg"><rect fill="#3178c6" width="128" height="128" rx="6"/><path fill="#fff" d="M102.73 58.91a15.56 15.56 0 017.82 4.5 20.58 20.58 0 013 4c0 .16-5.4 3.81-8.69 5.85-.12.08-.6-.44-1.13-1.23a6.54 6.54 0 00-5.54-3.17c-3.57-.22-5.86 1.72-5.84 4.9a4.54 4.54 0 00.49 2.3c.73 1.47 2.09 2.35 5.89 3.82 7 2.72 10 4.69 12.14 7.95a15.51 15.51 0 011.47 9.76 15.45 15.45 0 01-5.25 9.17c-3.2 2.61-7.41 3.92-13.46 4.21-7.23 0-13.23-2.59-16.08-6.93a22.3 22.3 0 01-2.25-4.28c0-.1 1.09-.77 2.42-1.48l4.78-2.64 1.48-.83.76 1.11a13.5 13.5 0 004.75 4.33 12 12 0 0011.8-.88 4.69 4.69 0 001.6-5.69c-.72-1.38-2.22-2.35-6.35-4.08-4.73-1.99-6.78-3.22-9.02-5.42a14.42 14.42 0 01-3.14-6.18 25 25 0 01-.15-7.75 13.94 13.94 0 015.13-8.46c3.36-2.59 7.48-3.73 13.55-3.73a21.59 21.59 0 017.52 1.23zM65.3 69.88v5H49.19v40.3H38.08v-40.3H22v-4.88c0-2.7.05-4.93.12-5l.12-.06h43q.06 2.68.06 5z"/></svg>